<mxfile host="app.diagrams.net" modified="2023-11-29T06:54:11.177Z" agent="Mozilla/5.0 (Windows NT 10.0; Win64; x64; rv:120.0) Gecko/20100101 Firefox/120.0" version="22.1.4" etag="bRa8sPY7sVHnxO5V0tl2" type="github">
  <diagram name="第 1 页" id="tV-yrcia4Rfp8jAJ03ew">
    <mxGraphModel>
      <root>
        <mxCell id="0" />
        <mxCell id="1" parent="0" />
      </root>
    </mxGraphModel>
  </diagram>
</mxfile>
